# xmcd
#
# Track frame offsets:
#	150
#	24195
#	41785
#	61632
#	82917
#	104437
#	131242
#	148815
#	167467
#	195360
#
# Disc length: 2801 seconds
#
# Revision: 1
# Processed by: cddbd v1.5.1PL0 Copyright (c) Steve Scherf et al.
# Submitted via: audiograbber 1.83.01
#
DISCID=7b0aef0a
DTITLE=Müslüm Gürses - Senden Vazgeçmem
DYEAR=1900
DGENRE=
TTITLE0=Senden Vazgeçmem
TTITLE1=Hangimiz sevmedik
TTITLE2=Etme bulma dünyasi
TTITLE3=Dayanamazsin
TTITLE4=Yalan oldu
TTITLE5=Evlat
TTITLE6=Agir yarali
TTITLE7=Can yar
TTITLE8=Haydar
TTITLE9=Bütün dünya senin olsun
EXTD=
EXTT0=
EXTT1=
EXTT2=
EXTT3=
EXTT4=
EXTT5=
EXTT6=
EXTT7=
EXTT8=
EXTT9=
PLAYORDER=
